<mxfile host="app.diagrams.net" agent="Mozilla/5.0 (Windows NT 10.0; Win64; x64; rv:142.0) Gecko/20100101 Firefox/142.0" version="28.1.2">
  <diagram name="Page-1" id="10eRcnb0NOjNtRTbrPH-">
    <mxGraphModel dx="680" dy="771" grid="1" gridSize="10" guides="1" tooltips="1" connect="1" arrows="1" fold="1" page="1" pageScale="1" pageWidth="850" pageHeight="1100" math="0" shadow="0">
      <root>
        <mxCell id="0" />
        <mxCell id="1" parent="0" />
        <mxCell id="NEGzcYJf4fpDSTtJPN1s-57" style="rounded=0;orthogonalLoop=1;jettySize=auto;html=1;exitX=0.5;exitY=0;exitDx=0;exitDy=0;entryX=0.5;entryY=1;entryDx=0;entryDy=0;endArrow=none;endFill=0;" parent="1" source="NEGzcYJf4fpDSTtJPN1s-1" target="NEGzcYJf4fpDSTtJPN1s-56" edge="1">
          <mxGeometry relative="1" as="geometry" />
        </mxCell>
        <mxCell id="NEGzcYJf4fpDSTtJPN1s-59" style="rounded=0;orthogonalLoop=1;jettySize=auto;html=1;exitX=0;exitY=0.5;exitDx=0;exitDy=0;entryX=0.5;entryY=1;entryDx=0;entryDy=0;endArrow=none;endFill=0;" parent="1" source="NEGzcYJf4fpDSTtJPN1s-1" target="NEGzcYJf4fpDSTtJPN1s-58" edge="1">
          <mxGeometry relative="1" as="geometry" />
        </mxCell>
        <mxCell id="NEGzcYJf4fpDSTtJPN1s-61" style="rounded=0;orthogonalLoop=1;jettySize=auto;html=1;exitX=0.5;exitY=1;exitDx=0;exitDy=0;entryX=1;entryY=0.5;entryDx=0;entryDy=0;endArrow=none;endFill=0;" parent="1" source="NEGzcYJf4fpDSTtJPN1s-1" target="NEGzcYJf4fpDSTtJPN1s-60" edge="1">
          <mxGeometry relative="1" as="geometry" />
        </mxCell>
        <mxCell id="hWvvkmQjGzWoSBslrIGA-30" style="rounded=0;orthogonalLoop=1;jettySize=auto;html=1;exitX=0.5;exitY=1;exitDx=0;exitDy=0;entryX=0.5;entryY=0;entryDx=0;entryDy=0;endArrow=none;endFill=0;" edge="1" parent="1" source="NEGzcYJf4fpDSTtJPN1s-1" target="hWvvkmQjGzWoSBslrIGA-29">
          <mxGeometry relative="1" as="geometry" />
        </mxCell>
        <mxCell id="NEGzcYJf4fpDSTtJPN1s-1" value="Politician" style="whiteSpace=wrap;html=1;align=center;" parent="1" vertex="1">
          <mxGeometry x="175" y="230" width="100" height="40" as="geometry" />
        </mxCell>
        <mxCell id="NEGzcYJf4fpDSTtJPN1s-28" style="rounded=0;orthogonalLoop=1;jettySize=auto;html=1;exitX=1;exitY=0.5;exitDx=0;exitDy=0;endArrow=none;endFill=0;entryX=0;entryY=0.5;entryDx=0;entryDy=0;" parent="1" source="NEGzcYJf4fpDSTtJPN1s-2" target="NEGzcYJf4fpDSTtJPN1s-29" edge="1">
          <mxGeometry relative="1" as="geometry">
            <mxPoint x="377.56583509747225" y="883.675444679663" as="targetPoint" />
          </mxGeometry>
        </mxCell>
        <mxCell id="NEGzcYJf4fpDSTtJPN1s-2" value="User" style="whiteSpace=wrap;html=1;align=center;" parent="1" vertex="1">
          <mxGeometry x="250" y="860" width="100" height="40" as="geometry" />
        </mxCell>
        <mxCell id="NEGzcYJf4fpDSTtJPN1s-26" style="rounded=0;orthogonalLoop=1;jettySize=auto;html=1;exitX=0;exitY=0.5;exitDx=0;exitDy=0;entryX=0.5;entryY=1;entryDx=0;entryDy=0;endArrow=none;endFill=0;" parent="1" source="NEGzcYJf4fpDSTtJPN1s-31" target="NEGzcYJf4fpDSTtJPN1s-25" edge="1">
          <mxGeometry relative="1" as="geometry">
            <mxPoint x="295" y="700" as="sourcePoint" />
          </mxGeometry>
        </mxCell>
        <mxCell id="NEGzcYJf4fpDSTtJPN1s-4" value="Comment" style="whiteSpace=wrap;html=1;align=center;" parent="1" vertex="1">
          <mxGeometry x="450" y="230" width="100" height="40" as="geometry" />
        </mxCell>
        <mxCell id="NEGzcYJf4fpDSTtJPN1s-5" value="Activity" style="whiteSpace=wrap;html=1;align=center;" parent="1" vertex="1">
          <mxGeometry x="325" y="120" width="100" height="40" as="geometry" />
        </mxCell>
        <mxCell id="NEGzcYJf4fpDSTtJPN1s-7" style="rounded=0;orthogonalLoop=1;jettySize=auto;html=1;exitX=0.5;exitY=0;exitDx=0;exitDy=0;entryX=0.5;entryY=1;entryDx=0;entryDy=0;endArrow=none;endFill=0;" parent="1" source="NEGzcYJf4fpDSTtJPN1s-6" target="NEGzcYJf4fpDSTtJPN1s-2" edge="1">
          <mxGeometry relative="1" as="geometry" />
        </mxCell>
        <mxCell id="NEGzcYJf4fpDSTtJPN1s-6" value="password" style="ellipse;whiteSpace=wrap;html=1;align=center;" parent="1" vertex="1">
          <mxGeometry x="140" y="930" width="100" height="40" as="geometry" />
        </mxCell>
        <mxCell id="NEGzcYJf4fpDSTtJPN1s-9" style="rounded=0;orthogonalLoop=1;jettySize=auto;html=1;exitX=0.5;exitY=0;exitDx=0;exitDy=0;endArrow=none;endFill=0;" parent="1" source="NEGzcYJf4fpDSTtJPN1s-10" target="NEGzcYJf4fpDSTtJPN1s-2" edge="1">
          <mxGeometry relative="1" as="geometry">
            <mxPoint x="300" y="930" as="sourcePoint" />
          </mxGeometry>
        </mxCell>
        <mxCell id="NEGzcYJf4fpDSTtJPN1s-10" value="email" style="ellipse;whiteSpace=wrap;html=1;align=center;fontStyle=4;" parent="1" vertex="1">
          <mxGeometry x="250" y="930" width="100" height="40" as="geometry" />
        </mxCell>
        <mxCell id="NEGzcYJf4fpDSTtJPN1s-12" style="rounded=0;orthogonalLoop=1;jettySize=auto;html=1;exitX=0.5;exitY=0;exitDx=0;exitDy=0;entryX=0.5;entryY=1;entryDx=0;entryDy=0;endArrow=none;endFill=0;" parent="1" source="NEGzcYJf4fpDSTtJPN1s-11" target="NEGzcYJf4fpDSTtJPN1s-2" edge="1">
          <mxGeometry relative="1" as="geometry" />
        </mxCell>
        <mxCell id="NEGzcYJf4fpDSTtJPN1s-11" value="phone" style="ellipse;whiteSpace=wrap;html=1;align=center;" parent="1" vertex="1">
          <mxGeometry x="360" y="930" width="100" height="40" as="geometry" />
        </mxCell>
        <mxCell id="NEGzcYJf4fpDSTtJPN1s-15" style="rounded=0;orthogonalLoop=1;jettySize=auto;html=1;exitX=0;exitY=0.5;exitDx=0;exitDy=0;entryX=0.5;entryY=0;entryDx=0;entryDy=0;endArrow=none;endFill=0;" parent="1" source="NEGzcYJf4fpDSTtJPN1s-14" target="NEGzcYJf4fpDSTtJPN1s-17" edge="1">
          <mxGeometry relative="1" as="geometry">
            <mxPoint x="595" y="940" as="targetPoint" />
          </mxGeometry>
        </mxCell>
        <mxCell id="NEGzcYJf4fpDSTtJPN1s-14" value="twitter" style="ellipse;whiteSpace=wrap;html=1;align=center;" parent="1" vertex="1">
          <mxGeometry x="665" y="890" width="100" height="40" as="geometry" />
        </mxCell>
        <mxCell id="NEGzcYJf4fpDSTtJPN1s-16" value="instagram" style="ellipse;whiteSpace=wrap;html=1;align=center;" parent="1" vertex="1">
          <mxGeometry x="665" y="970" width="100" height="40" as="geometry" />
        </mxCell>
        <mxCell id="NEGzcYJf4fpDSTtJPN1s-18" style="rounded=0;orthogonalLoop=1;jettySize=auto;html=1;exitX=0.5;exitY=1;exitDx=0;exitDy=0;entryX=0;entryY=0.5;entryDx=0;entryDy=0;endArrow=none;endFill=0;" parent="1" source="NEGzcYJf4fpDSTtJPN1s-17" target="NEGzcYJf4fpDSTtJPN1s-16" edge="1">
          <mxGeometry relative="1" as="geometry" />
        </mxCell>
        <mxCell id="NEGzcYJf4fpDSTtJPN1s-17" value="User Socials" style="shape=ext;margin=3;double=1;whiteSpace=wrap;html=1;align=center;" parent="1" vertex="1">
          <mxGeometry x="545" y="930" width="100" height="40" as="geometry" />
        </mxCell>
        <mxCell id="NEGzcYJf4fpDSTtJPN1s-22" style="rounded=0;orthogonalLoop=1;jettySize=auto;html=1;exitX=0.5;exitY=0;exitDx=0;exitDy=0;endArrow=none;endFill=0;" parent="1" source="NEGzcYJf4fpDSTtJPN1s-19" target="NEGzcYJf4fpDSTtJPN1s-2" edge="1">
          <mxGeometry relative="1" as="geometry" />
        </mxCell>
        <mxCell id="NEGzcYJf4fpDSTtJPN1s-19" value="state" style="ellipse;whiteSpace=wrap;html=1;align=center;" parent="1" vertex="1">
          <mxGeometry x="130" y="880" width="100" height="40" as="geometry" />
        </mxCell>
        <mxCell id="NEGzcYJf4fpDSTtJPN1s-25" value="nickname" style="ellipse;whiteSpace=wrap;html=1;align=center;" parent="1" vertex="1">
          <mxGeometry x="175" y="630" width="100" height="40" as="geometry" />
        </mxCell>
        <mxCell id="NEGzcYJf4fpDSTtJPN1s-29" value="username" style="ellipse;whiteSpace=wrap;html=1;align=center;fontStyle=4;" parent="1" vertex="1">
          <mxGeometry x="375" y="870" width="100" height="40" as="geometry" />
        </mxCell>
        <mxCell id="NEGzcYJf4fpDSTtJPN1s-37" style="rounded=0;orthogonalLoop=1;jettySize=auto;html=1;exitX=0.5;exitY=0;exitDx=0;exitDy=0;entryX=0.5;entryY=1;entryDx=0;entryDy=0;endArrow=none;endFill=0;" parent="1" source="NEGzcYJf4fpDSTtJPN1s-31" target="NEGzcYJf4fpDSTtJPN1s-36" edge="1">
          <mxGeometry relative="1" as="geometry" />
        </mxCell>
        <mxCell id="NEGzcYJf4fpDSTtJPN1s-42" style="rounded=0;orthogonalLoop=1;jettySize=auto;html=1;exitX=0.5;exitY=1;exitDx=0;exitDy=0;endArrow=none;endFill=0;" parent="1" source="NEGzcYJf4fpDSTtJPN1s-31" target="NEGzcYJf4fpDSTtJPN1s-41" edge="1">
          <mxGeometry relative="1" as="geometry" />
        </mxCell>
        <mxCell id="NEGzcYJf4fpDSTtJPN1s-31" value="User Profile" style="shape=ext;margin=3;double=1;whiteSpace=wrap;html=1;align=center;" parent="1" vertex="1">
          <mxGeometry x="290" y="680" width="100" height="40" as="geometry" />
        </mxCell>
        <mxCell id="NEGzcYJf4fpDSTtJPN1s-54" style="rounded=0;orthogonalLoop=1;jettySize=auto;html=1;exitX=0.5;exitY=0;exitDx=0;exitDy=0;entryX=0.5;entryY=1;entryDx=0;entryDy=0;endArrow=none;endFill=0;" parent="1" source="NEGzcYJf4fpDSTtJPN1s-34" target="NEGzcYJf4fpDSTtJPN1s-53" edge="1">
          <mxGeometry relative="1" as="geometry" />
        </mxCell>
        <mxCell id="NEGzcYJf4fpDSTtJPN1s-34" value="Profile Picture" style="shape=ext;margin=3;double=1;whiteSpace=wrap;html=1;align=center;" parent="1" vertex="1">
          <mxGeometry x="60" y="790" width="100" height="40" as="geometry" />
        </mxCell>
        <mxCell id="NEGzcYJf4fpDSTtJPN1s-36" value="party" style="ellipse;whiteSpace=wrap;html=1;align=center;" parent="1" vertex="1">
          <mxGeometry x="290" y="630" width="100" height="40" as="geometry" />
        </mxCell>
        <mxCell id="NEGzcYJf4fpDSTtJPN1s-41" value="description" style="ellipse;whiteSpace=wrap;html=1;align=center;" parent="1" vertex="1">
          <mxGeometry x="200" y="730" width="100" height="40" as="geometry" />
        </mxCell>
        <mxCell id="NEGzcYJf4fpDSTtJPN1s-46" style="rounded=0;orthogonalLoop=1;jettySize=auto;html=1;exitX=0.5;exitY=0;exitDx=0;exitDy=0;entryX=0;entryY=0.5;entryDx=0;entryDy=0;endArrow=none;endFill=0;" parent="1" source="NEGzcYJf4fpDSTtJPN1s-44" target="NEGzcYJf4fpDSTtJPN1s-45" edge="1">
          <mxGeometry relative="1" as="geometry" />
        </mxCell>
        <mxCell id="NEGzcYJf4fpDSTtJPN1s-48" style="rounded=0;orthogonalLoop=1;jettySize=auto;html=1;exitX=1;exitY=0.5;exitDx=0;exitDy=0;entryX=0;entryY=0.5;entryDx=0;entryDy=0;endArrow=none;endFill=0;" parent="1" source="NEGzcYJf4fpDSTtJPN1s-44" target="NEGzcYJf4fpDSTtJPN1s-47" edge="1">
          <mxGeometry relative="1" as="geometry" />
        </mxCell>
        <mxCell id="NEGzcYJf4fpDSTtJPN1s-51" style="rounded=0;orthogonalLoop=1;jettySize=auto;html=1;exitX=0.5;exitY=1;exitDx=0;exitDy=0;entryX=0;entryY=0.5;entryDx=0;entryDy=0;endArrow=none;endFill=0;" parent="1" source="NEGzcYJf4fpDSTtJPN1s-44" target="NEGzcYJf4fpDSTtJPN1s-50" edge="1">
          <mxGeometry relative="1" as="geometry" />
        </mxCell>
        <mxCell id="NEGzcYJf4fpDSTtJPN1s-44" value="&lt;div&gt;Ideology&lt;/div&gt;" style="whiteSpace=wrap;html=1;align=center;" parent="1" vertex="1">
          <mxGeometry x="570" y="710" width="100" height="40" as="geometry" />
        </mxCell>
        <mxCell id="NEGzcYJf4fpDSTtJPN1s-45" value="name" style="ellipse;whiteSpace=wrap;html=1;align=center;" parent="1" vertex="1">
          <mxGeometry x="680" y="650" width="100" height="40" as="geometry" />
        </mxCell>
        <mxCell id="NEGzcYJf4fpDSTtJPN1s-47" value="about" style="ellipse;whiteSpace=wrap;html=1;align=center;" parent="1" vertex="1">
          <mxGeometry x="680" y="710" width="100" height="40" as="geometry" />
        </mxCell>
        <mxCell id="NEGzcYJf4fpDSTtJPN1s-50" value="icon" style="ellipse;whiteSpace=wrap;html=1;align=center;" parent="1" vertex="1">
          <mxGeometry x="690" y="770" width="100" height="40" as="geometry" />
        </mxCell>
        <mxCell id="NEGzcYJf4fpDSTtJPN1s-53" value="pic path" style="ellipse;whiteSpace=wrap;html=1;align=center;" parent="1" vertex="1">
          <mxGeometry x="60" y="730" width="100" height="40" as="geometry" />
        </mxCell>
        <mxCell id="NEGzcYJf4fpDSTtJPN1s-56" value="party" style="ellipse;whiteSpace=wrap;html=1;align=center;" parent="1" vertex="1">
          <mxGeometry x="165" y="160" width="100" height="40" as="geometry" />
        </mxCell>
        <mxCell id="NEGzcYJf4fpDSTtJPN1s-58" value="name" style="ellipse;whiteSpace=wrap;html=1;align=center;" parent="1" vertex="1">
          <mxGeometry x="55" y="190" width="100" height="40" as="geometry" />
        </mxCell>
        <mxCell id="NEGzcYJf4fpDSTtJPN1s-60" value="age" style="ellipse;whiteSpace=wrap;html=1;align=center;" parent="1" vertex="1">
          <mxGeometry x="55" y="270" width="100" height="40" as="geometry" />
        </mxCell>
        <mxCell id="NEGzcYJf4fpDSTtJPN1s-69" value="Parties" style="whiteSpace=wrap;html=1;align=center;" parent="1" vertex="1">
          <mxGeometry x="600" y="240" width="100" height="40" as="geometry" />
        </mxCell>
        <mxCell id="hWvvkmQjGzWoSBslrIGA-9" value="Power Types" style="swimlane;fontStyle=0;childLayout=stackLayout;horizontal=1;startSize=26;horizontalStack=0;resizeParent=1;resizeParentMax=0;resizeLast=0;collapsible=1;marginBottom=0;align=center;fontSize=14;" vertex="1" parent="1">
          <mxGeometry x="660" y="324" width="160" height="116" as="geometry" />
        </mxCell>
        <mxCell id="hWvvkmQjGzWoSBslrIGA-10" value="Executivo" style="text;strokeColor=none;fillColor=none;spacingLeft=4;spacingRight=4;overflow=hidden;rotatable=0;points=[[0,0.5],[1,0.5]];portConstraint=eastwest;fontSize=12;whiteSpace=wrap;html=1;" vertex="1" parent="hWvvkmQjGzWoSBslrIGA-9">
          <mxGeometry y="26" width="160" height="30" as="geometry" />
        </mxCell>
        <mxCell id="hWvvkmQjGzWoSBslrIGA-11" value="Legislativo" style="text;strokeColor=none;fillColor=none;spacingLeft=4;spacingRight=4;overflow=hidden;rotatable=0;points=[[0,0.5],[1,0.5]];portConstraint=eastwest;fontSize=12;whiteSpace=wrap;html=1;" vertex="1" parent="hWvvkmQjGzWoSBslrIGA-9">
          <mxGeometry y="56" width="160" height="30" as="geometry" />
        </mxCell>
        <mxCell id="hWvvkmQjGzWoSBslrIGA-12" value="Judiciário" style="text;strokeColor=none;fillColor=none;spacingLeft=4;spacingRight=4;overflow=hidden;rotatable=0;points=[[0,0.5],[1,0.5]];portConstraint=eastwest;fontSize=12;whiteSpace=wrap;html=1;" vertex="1" parent="hWvvkmQjGzWoSBslrIGA-9">
          <mxGeometry y="86" width="160" height="30" as="geometry" />
        </mxCell>
        <mxCell id="hWvvkmQjGzWoSBslrIGA-15" value="Base Institucional" style="shape=note;size=20;whiteSpace=wrap;html=1;" vertex="1" parent="1">
          <mxGeometry x="75" y="40" width="100" height="100" as="geometry" />
        </mxCell>
        <mxCell id="hWvvkmQjGzWoSBslrIGA-19" value="Power Levels" style="swimlane;fontStyle=0;childLayout=stackLayout;horizontal=1;startSize=26;horizontalStack=0;resizeParent=1;resizeParentMax=0;resizeLast=0;collapsible=1;marginBottom=0;align=center;fontSize=14;" vertex="1" parent="1">
          <mxGeometry x="660" y="470" width="160" height="116" as="geometry" />
        </mxCell>
        <mxCell id="hWvvkmQjGzWoSBslrIGA-20" value="União" style="text;strokeColor=none;fillColor=none;spacingLeft=4;spacingRight=4;overflow=hidden;rotatable=0;points=[[0,0.5],[1,0.5]];portConstraint=eastwest;fontSize=12;whiteSpace=wrap;html=1;" vertex="1" parent="hWvvkmQjGzWoSBslrIGA-19">
          <mxGeometry y="26" width="160" height="30" as="geometry" />
        </mxCell>
        <mxCell id="hWvvkmQjGzWoSBslrIGA-21" value="Estados" style="text;strokeColor=none;fillColor=none;spacingLeft=4;spacingRight=4;overflow=hidden;rotatable=0;points=[[0,0.5],[1,0.5]];portConstraint=eastwest;fontSize=12;whiteSpace=wrap;html=1;" vertex="1" parent="hWvvkmQjGzWoSBslrIGA-19">
          <mxGeometry y="56" width="160" height="30" as="geometry" />
        </mxCell>
        <mxCell id="hWvvkmQjGzWoSBslrIGA-22" value="Municípios" style="text;strokeColor=none;fillColor=none;spacingLeft=4;spacingRight=4;overflow=hidden;rotatable=0;points=[[0,0.5],[1,0.5]];portConstraint=eastwest;fontSize=12;whiteSpace=wrap;html=1;" vertex="1" parent="hWvvkmQjGzWoSBslrIGA-19">
          <mxGeometry y="86" width="160" height="30" as="geometry" />
        </mxCell>
        <mxCell id="hWvvkmQjGzWoSBslrIGA-23" value="Mandate" style="whiteSpace=wrap;html=1;align=center;" vertex="1" parent="1">
          <mxGeometry x="425" y="410" width="100" height="40" as="geometry" />
        </mxCell>
        <mxCell id="hWvvkmQjGzWoSBslrIGA-31" style="rounded=0;orthogonalLoop=1;jettySize=auto;html=1;exitX=0.5;exitY=1;exitDx=0;exitDy=0;endArrow=none;endFill=0;" edge="1" parent="1" source="hWvvkmQjGzWoSBslrIGA-24" target="hWvvkmQjGzWoSBslrIGA-26">
          <mxGeometry relative="1" as="geometry" />
        </mxCell>
        <mxCell id="hWvvkmQjGzWoSBslrIGA-32" style="rounded=0;orthogonalLoop=1;jettySize=auto;html=1;exitX=0.5;exitY=1;exitDx=0;exitDy=0;entryX=0.5;entryY=0;entryDx=0;entryDy=0;endArrow=none;endFill=0;" edge="1" parent="1" source="hWvvkmQjGzWoSBslrIGA-24" target="hWvvkmQjGzWoSBslrIGA-27">
          <mxGeometry relative="1" as="geometry" />
        </mxCell>
        <mxCell id="hWvvkmQjGzWoSBslrIGA-33" style="rounded=0;orthogonalLoop=1;jettySize=auto;html=1;exitX=0.5;exitY=1;exitDx=0;exitDy=0;entryX=0.5;entryY=0;entryDx=0;entryDy=0;endArrow=none;endFill=0;" edge="1" parent="1" source="hWvvkmQjGzWoSBslrIGA-24" target="hWvvkmQjGzWoSBslrIGA-28">
          <mxGeometry relative="1" as="geometry" />
        </mxCell>
        <mxCell id="hWvvkmQjGzWoSBslrIGA-24" value="Institution" style="whiteSpace=wrap;html=1;align=center;" vertex="1" parent="1">
          <mxGeometry x="175" y="390" width="100" height="40" as="geometry" />
        </mxCell>
        <mxCell id="hWvvkmQjGzWoSBslrIGA-26" value="name" style="ellipse;whiteSpace=wrap;html=1;align=center;" vertex="1" parent="1">
          <mxGeometry x="60" y="450" width="100" height="40" as="geometry" />
        </mxCell>
        <mxCell id="hWvvkmQjGzWoSBslrIGA-27" value="power level" style="ellipse;whiteSpace=wrap;html=1;align=center;" vertex="1" parent="1">
          <mxGeometry x="175" y="450" width="100" height="40" as="geometry" />
        </mxCell>
        <mxCell id="hWvvkmQjGzWoSBslrIGA-28" value="power type" style="ellipse;whiteSpace=wrap;html=1;align=center;" vertex="1" parent="1">
          <mxGeometry x="275" y="450" width="100" height="40" as="geometry" />
        </mxCell>
        <mxCell id="hWvvkmQjGzWoSBslrIGA-29" value="agent type" style="ellipse;whiteSpace=wrap;html=1;align=center;" vertex="1" parent="1">
          <mxGeometry x="175" y="320" width="100" height="40" as="geometry" />
        </mxCell>
      </root>
    </mxGraphModel>
  </diagram>
</mxfile>
